<?xml version="1.0" encoding="UTF-8" standalone="no"?>
<svg width="37px" height="31px" viewBox="0 0 37 31" version="1.1" xmlns="http://www.w3.org/2000/svg" xmlns:xlink="http://www.w3.org/1999/xlink">
    <!-- Generator: Sketch 46 (44423) - http://www.bohemiancoding.com/sketch -->
    <title>Medium-white</title>
    <desc>Created with Sketch.</desc>
    <defs></defs>
    <g id="Welcome" stroke="none" stroke-width="1" fill="none" fill-rule="evenodd">
        <g id="Desktop-HD" transform="translate(-173.000000, -1696.000000)" fill-rule="nonzero" fill="#FFFFFF">
            <g id="Group-2" transform="translate(173.000000, 1696.000000)">
                <g id="Medium-white">
                    <path d="M36.9468852,5.69791254 C36.9399242,5.6922874 36.9343555,5.68490441 36.9256544,5.68068556 L36.9131247,5.67435728 L25.9253375,0.124807734 C25.8512038,0.0871896282 25.7732418,0.0618765107 25.6942355,0.0414853876 C25.5950426,0.0158206987 25.4937614,0 25.3921322,0 C24.9713456,0 24.5526472,0.213403647 24.3257217,0.585365853 L18,10.9693693 L25.9385632,24 L36.9806455,5.87510436 C37.0171902,5.81463414 36.999788,5.74010107 36.9468852,5.69791254" id="Fill-53"></path>
                    <polyline id="Fill-54" points="14 9 14 20.7693923 24 26 14 9"></polyline>
                    <path d="M26,26.4080345 L34.9024181,30.7427733 C36.0608653,31.30704 37,30.9119476 37,29.8609523 L37,9 L26,26.4080345" id="Fill-55"></path>
                    <path d="M11.9353304,5.56605935 L1.32916726,0.144189318 C1.13756629,0.046421927 0.955252973,0 0.790139028,0 C0.325756055,0 0,0.36750692 0,0.984004171 L0,24.3954258 C0,25.0221219 0.448559552,25.7641693 0.996875445,26.0444593 L10.3385409,30.8195875 C10.5779561,30.9419726 10.8060198,31 11.0120682,31 C11.5927189,31 12,30.5407043 12,29.769819 L12,5.67261878 C12,5.62760358 11.9748889,5.58610519 11.9353304,5.56605935" id="Fill-56"></path>
                </g>
            </g>
        </g>
    </g>
</svg>