<?xml version="1.0" encoding="UTF-8" standalone="no"?>
<svg width="37px" height="31px" viewBox="0 0 37 31" version="1.1" xmlns="http://www.w3.org/2000/svg" xmlns:xlink="http://www.w3.org/1999/xlink">
    <!-- Generator: Sketch 46 (44423) - http://www.bohemiancoding.com/sketch -->
    <title>Twitter</title>
    <desc>Created with Sketch.</desc>
    <defs></defs>
    <g id="Welcome" stroke="none" stroke-width="1" fill="none" fill-rule="evenodd">
        <g id="Desktop-HD" transform="translate(-396.000000, -1696.000000)" fill-rule="nonzero" fill="#FFFFFF">
            <g id="Twitter-white" transform="translate(396.000000, 1696.000000)">
                <path d="M37,3.66984433 C35.6404882,4.29230805 34.1767327,4.71325395 32.6413098,4.90133638 C34.2093089,3.93405577 35.4124549,2.40028893 35.9792802,0.573203175 C34.5111819,1.46883348 32.8888891,2.12040465 31.1558377,2.46970025 C29.7746084,0.949368025 27.8004927,0 25.615719,0 C21.4264248,0 18.0276457,3.5041532 18.0276457,7.8255687 C18.0276457,8.43907575 18.092798,9.03466945 18.2231028,9.60787263 C11.9141865,9.28096755 6.32194642,6.1686528 2.57568794,1.42853038 C1.92199352,2.58837135 1.54845308,3.93405577 1.54845308,5.3670641 C1.54845308,8.08082348 2.88841965,10.4766344 4.92551477,11.8805346 C3.68327754,11.8424704 2.51053556,11.4864571 1.48547292,10.9042973 L1.48547292,11.0005779 C1.48547292,14.793572 4.10242433,17.9573855 7.57721458,18.6738893 C6.94089321,18.8574937 6.26982421,18.9492956 5.57703852,18.9492956 C5.08839571,18.9492956 4.6106124,18.9022756 4.14803069,18.810473 C5.11445681,21.9183097 7.91600662,24.182015 11.2387747,24.2424704 C8.6413685,26.3427228 5.36637902,27.5943664 1.81123402,27.5943664 C1.19880231,27.5943664 0.592885688,27.5585412 0,27.4868909 C3.35968788,29.7035753 7.35135271,31 11.6362032,31 C25.6005166,31 33.2341963,19.0769234 33.2341963,8.73463363 C33.2341963,8.39429392 33.2276812,8.05395423 33.2146502,7.72033222 C34.6979517,6.61646795 35.9857953,5.23943632 37,3.66984433" id="Twitter"></path>
            </g>
        </g>
    </g>
</svg>